# xmcd
#
# Track frame offsets:
#	150
#	13292
#	24845
#	30670
#	43387
#	59119
#	74719
#	88820
#	101945
#	115519
#	131504
#	140891
#	152782
#	164329
#	179742
#	193885
#	211189
#	222481
#	235874
#	247561
#	255985
#	266702
#
# Disc length: 3751 seconds
#
# Revision: 0
# Processed by: cddbd v1.5.2PL0 Copyright (c) Steve Scherf et al.
# Submitted via: EasyCDDAExtractor 16.0.6.1
#
DISCID=520ea516
DTITLE=Συλλογικός δίσκος - Λαϊκοί συνθέτες Α3-Πάνου Άκης
DYEAR=2010
DGENRE=Λαϊκή
TTITLE0=Βιτάλη Ελένη - Και τι δεν κάνω
TTITLE1=Μητσιάς Μανώλης - Ο τρελλός
TTITLE2=Μοσχολιού Βίκυ - Δεν κλαίω για τώρα
TTITLE3=Μενιδιάτης Μιχάλης - Εφτά φορές τη μάζεψα
TTITLE4=Ανδρεάτος Γεράσιμος - Κοίτα με στα μάτια
TTITLE5=Δήμου Ελένη - Όταν σημάνει η ώρα
TTITLE6=Κύπριος Στράτος - Ρολόϊ, κομπολόϊ [μπ. Χρ. Νικολόπουλος]
TTITLE7=Μπάσης Δημήτρης - Η ζωή μου όλη
TTITLE8=Διονυσίου Άγγελος - Γιατί, καλέ γειτόνισσα
TTITLE9=Δάρρα Φωτεινή - Η πιο μεγάλη ώρα
TTITLE10=Παπαδόπουλος Θόδωρος-Πάνου Άκης - Ήταν ψεύτικα
TTITLE11=Μοσχολιού Βίκυ - Θα κλείσω τα μάτια
TTITLE12=Μακρής Ηλίας - Στη φωτιά θα πέσω
TTITLE13=Κερμανίδης Πόλυς - Δεν θέλω την συμπόνια κανενός [στ. Σ. Ατταλίδης]
TTITLE14=Οπισθοδρομική κομπανία - Μολόγα τα
TTITLE15=Μενιδιάτης Μιχάλης - Παράνομη αγάπη
TTITLE16=Ανδρεάτος Γεράσιμος - Το θολωμένο μου μυαλό
TTITLE17=Χρηστάκης - Αν ήτανε κυρία
TTITLE18=Ανδρεάτος Γεράσιμος - Να είχα το κουράγιο
TTITLE19=Σαρρής Γιώργος - Εγώ καλά σού τά 'λεγα
TTITLE20=Διονυσίου Στέλιος - Του κόσμου το περίγελο
TTITLE21=Πάνου Άκης - Στο σταθμό του Μονάχου
EXTD=
EXTT0=
EXTT1=
EXTT2=
EXTT3=
EXTT4=
EXTT5=
EXTT6=
EXTT7=
EXTT8=
EXTT9=
EXTT10=
EXTT11=
EXTT12=
EXTT13=
EXTT14=
EXTT15=
EXTT16=
EXTT17=
EXTT18=
EXTT19=
EXTT20=
EXTT21=
PLAYORDER=
